<svg width="102" height="94" viewBox="0 0 102 94" fill="none" xmlns="http://www.w3.org/2000/svg">
<mask id="path-1-inside-1_7_45" fill="white">
<path fill-rule="evenodd" clip-rule="evenodd" d="M34 34.2122C34 34.2122 34 34.2122 34 34.2122C42.0873 23.0493 56.7274 19.8567 66.6996 27.0814C76.6717 34.306 78.1998 49.2121 70.1125 60.3749L34 34.2122Z"/>
</mask>
<path d="M34 34.2122L18.6136 23.065L7.46644 38.4515L22.8528 49.5986L34 34.2122ZM70.1125 60.3749L58.9653 75.7613L74.3517 86.9085L85.4989 71.5221L70.1125 60.3749ZM49.3864 45.3593L49.3864 45.3593L18.6136 23.065L18.6136 23.065L49.3864 45.3593ZM49.3864 45.3593C50.7431 43.4867 52.4229 42.5917 53.6911 42.3152C54.9151 42.0483 55.4165 42.3693 55.5524 42.4678L77.8467 11.695C57.7909 -2.83507 31.6417 5.08232 18.6136 23.065L49.3864 45.3593ZM55.5524 42.4678C55.6883 42.5662 56.1496 42.9427 56.2774 44.1889C56.4097 45.4801 56.0827 47.3552 54.7261 49.2278L85.4989 71.5221C98.527 53.5394 97.9025 26.225 77.8467 11.695L55.5524 42.4678ZM22.8528 49.5986L58.9653 75.7613L81.2596 44.9885L45.1471 18.8258L22.8528 49.5986Z" fill="white" mask="url(#path-1-inside-1_7_45)"/>
<path fill-rule="evenodd" clip-rule="evenodd" d="M80.1099 81.6762C76.853 86.5397 57.7415 79.4524 37.423 65.8461C17.1046 52.2399 3.27348 37.2671 6.53035 32.4036C9.78722 27.5401 28.8988 34.6275 49.2172 48.2337C69.5356 61.84 83.3668 76.8127 80.1099 81.6762ZM21.6697 42.4742C20.8583 43.6859 19.3895 44.1251 18.3891 43.4552C17.3887 42.7853 17.2356 41.26 18.047 40.0483C18.8584 38.8366 20.3272 38.3973 21.3275 39.0673C22.3279 39.7372 22.4811 41.2625 21.6697 42.4742ZM27.6472 49.6548C28.6476 50.3247 30.1163 49.8855 30.9278 48.6738C31.7392 47.4621 31.586 45.9367 30.5856 45.2668C29.5852 44.5969 28.1165 45.0361 27.3051 46.2478C26.4937 47.4595 26.6468 48.9849 27.6472 49.6548ZM40.1857 54.8736C39.3742 56.0853 37.9055 56.5245 36.9051 55.8546C35.9047 55.1847 35.7515 53.6593 36.563 52.4476C37.3744 51.2359 38.8431 50.7967 39.8435 51.4666C40.8439 52.1365 40.9971 53.6618 40.1857 54.8736ZM46.1631 62.0541C47.1635 62.724 48.6323 62.2848 49.4437 61.0731C50.2551 59.8614 50.1019 58.336 49.1016 57.6661C48.1012 56.9962 46.6324 57.4355 45.821 58.6472C45.0096 59.8589 45.1628 61.3842 46.1631 62.0541ZM58.7018 67.2727C57.8904 68.4844 56.4216 68.9236 55.4213 68.2537C54.4209 67.5838 54.2677 66.0584 55.0791 64.8467C55.8906 63.635 57.3593 63.1958 58.3597 63.8657C59.3601 64.5356 59.5133 66.0609 58.7018 67.2727ZM64.6792 74.4535C65.6795 75.1234 67.1483 74.6842 67.9597 73.4724C68.7711 72.2607 68.618 70.7354 67.6176 70.0655C66.6172 69.3956 65.1485 69.8348 64.337 71.0465C63.5256 72.2582 63.6788 73.7836 64.6792 74.4535Z" fill="white"/>
</svg>
