<svg width="368" height="368" viewBox="0 0 368 368" fill="none" xmlns="http://www.w3.org/2000/svg">
<path d="M92 207C104.703 207 115 196.703 115 184C115 171.297 104.703 161 92 161C79.2975 161 69 171.297 69 184C69 196.703 79.2975 207 92 207Z" fill="black"/>
<path d="M184 207C196.703 207 207 196.703 207 184C207 171.297 196.703 161 184 161C171.297 161 161 171.297 161 184C161 196.703 171.297 207 184 207Z" fill="black"/>
<path d="M276 207C288.703 207 299 196.703 299 184C299 171.297 288.703 161 276 161C263.297 161 253 171.297 253 184C253 196.703 263.297 207 276 207Z" fill="black"/>
</svg>
