<svg width="1024" height="1024" viewBox="0 0 1024 1024" fill="none" xmlns="http://www.w3.org/2000/svg">
<path d="M864 248H728L695.6 157.2C693.362 150.987 689.26 145.616 683.854 141.822C678.449 138.027 672.004 135.994 665.4 136H358.6C345.1 136 333 144.5 328.5 157.2L296 248H160C115.8 248 80 283.8 80 328V784C80 828.2 115.8 864 160 864H864C908.2 864 944 828.2 944 784V328C944 283.8 908.2 248 864 248ZM872 784C872 788.4 868.4 792 864 792H160C155.6 792 152 788.4 152 784V328C152 323.6 155.6 320 160 320H346.7L363.8 272.2L386.7 208H637.2L660.1 272.2L677.2 320H864C868.4 320 872 323.6 872 328V784ZM512 384C423.6 384 352 455.6 352 544C352 632.4 423.6 704 512 704C600.4 704 672 632.4 672 544C672 455.6 600.4 384 512 384ZM512 640C459 640 416 597 416 544C416 491 459 448 512 448C565 448 608 491 608 544C608 597 565 640 512 640Z" fill="#F24E1E"/>
</svg>
