<svg width="48" height="48" viewBox="0 0 48 48" fill="none" xmlns="http://www.w3.org/2000/svg">
<path d="M14.34 21.412L24 24L33.66 26.588L43.319 29.176C45.657 20.451 41.847 11.526 34.546 7C32.8793 5.96801 31.07 5.18665 29.176 4.681C27.0021 4.09621 24.7449 3.88321 22.5 4.051C14.263 4.671 6.94001 10.392 4.68201 18.824L14.341 21.412H14.34Z" stroke="#FFC700" stroke-width="4" stroke-linecap="round" stroke-linejoin="round"/>
<path d="M24 24L18.5 44M29.176 4.681C29.176 4.681 23.536 8.346 20.31 12.658C17.084 16.97 16.273 21.929 16.273 21.929L29.176 4.681ZM29.176 4.681C29.176 4.681 32.229 10.676 32.866 16.023C33.505 21.37 31.727 26.07 31.727 26.07L29.176 4.681ZM4.682 18.824L14.341 21.412L24 24L33.66 26.588L43.319 29.176L4.682 18.824ZM4 44H44H4Z" stroke="#FFC700" stroke-width="4" stroke-linecap="round" stroke-linejoin="round"/>
<path d="M22.5 4.04999C24.745 3.88252 27.0021 4.09587 29.176 4.68099C31.07 5.18664 32.8793 5.96799 34.546 6.99999" stroke="#FFC700" stroke-width="4" stroke-linecap="round" stroke-linejoin="round"/>
</svg>
