<svg width="24" height="24" viewBox="0 0 24 24" fill="none" xmlns="http://www.w3.org/2000/svg">
<path d="M16.846 12.334L12.861 5.57201C12.7727 5.4221 12.6467 5.29784 12.4956 5.21151C12.3445 5.12518 12.1735 5.07977 11.9995 5.07977C11.8255 5.07977 11.6545 5.12518 11.5034 5.21151C11.3523 5.29784 11.2264 5.4221 11.138 5.57201L9.11001 9.01501C9.31201 10.994 10.053 11.798 11.497 11.798C13.502 11.798 15.313 11.974 16.847 12.334H16.846ZM18.401 14.971C16.854 14.204 14.424 13.798 11.496 13.798C9.67701 13.798 8.38601 12.966 7.68301 11.434L4.11301 17.492C4.02341 17.6439 3.97559 17.8169 3.97439 17.9932C3.97319 18.1696 4.01867 18.3432 4.10619 18.4963C4.19372 18.6494 4.3202 18.7767 4.47278 18.8651C4.62536 18.9536 4.79863 19.0001 4.97501 19H19.025C19.2013 19 19.3744 18.9533 19.5269 18.8647C19.6793 18.7762 19.8057 18.6489 19.8931 18.4958C19.9805 18.3427 20.0259 18.1693 20.0246 17.993C20.0234 17.8167 19.9756 17.6439 19.886 17.492L18.401 14.972V14.971ZM14.584 4.55601L21.609 16.476C21.8777 16.9316 22.0212 17.4502 22.0249 17.9792C22.0285 18.5081 21.8923 19.0286 21.63 19.4879C21.3676 19.9472 20.9885 20.329 20.531 20.5946C20.0735 20.8601 19.554 21 19.025 21H4.97501C4.44611 21.0001 3.9266 20.8603 3.46913 20.5949C3.01166 20.3295 2.63249 19.9478 2.37005 19.4886C2.10761 19.0294 1.97123 18.509 1.97474 17.9801C1.97824 17.4512 2.12151 16.9327 2.39001 16.477L9.41501 4.55701C9.68002 4.10704 10.0579 3.73404 10.5113 3.4749C10.9646 3.21575 11.4778 3.07944 12 3.07944C12.5222 3.07944 13.0354 3.21575 13.4888 3.4749C13.9421 3.73404 14.32 4.10704 14.585 4.55701L14.584 4.55601Z" fill="#85B6FF"/>
</svg>
