<svg width="35" height="37" viewBox="0 0 35 37" fill="none" xmlns="http://www.w3.org/2000/svg">
<path d="M29.5312 26.9864H10.9375L5.46875 3.62146H2.1875M6.5625 8.07193H32.8125L29.5312 22.536H9.84375L6.5625 8.07193Z" stroke="#4D67D5" stroke-width="2" stroke-linecap="round" stroke-linejoin="round"/>
<path d="M27.3438 33.6621C28.5519 33.6621 29.5312 32.6659 29.5312 31.4369C29.5312 30.2079 28.5519 29.2117 27.3438 29.2117C26.1356 29.2117 25.1562 30.2079 25.1562 31.4369C25.1562 32.6659 26.1356 33.6621 27.3438 33.6621Z" stroke="#4D67D5" stroke-width="2" stroke-linecap="round" stroke-linejoin="round"/>
<path d="M13.125 33.6621C14.3331 33.6621 15.3125 32.6659 15.3125 31.4369C15.3125 30.2079 14.3331 29.2117 13.125 29.2117C11.9169 29.2117 10.9375 30.2079 10.9375 31.4369C10.9375 32.6659 11.9169 33.6621 13.125 33.6621Z" stroke="#4D67D5" stroke-width="2" stroke-linecap="round" stroke-linejoin="round"/>
</svg>
