<svg width="62" height="58" viewBox="0 0 62 58" fill="none" xmlns="http://www.w3.org/2000/svg">
<g clip-path="url(#clip0_37_2)">
<path d="M47.2492 36.9436C46.3041 33.4473 44.2611 30.3639 41.4336 28.1665C38.606 25.9692 35.1502 24.7792 31.5962 24.7792C28.0421 24.7792 24.5863 25.9692 21.7588 28.1665C18.9312 30.3639 16.8882 33.4473 15.9431 36.9436L13.6909 45.2756C13.2865 46.7716 13.2262 48.3427 13.5146 49.8664C13.803 51.3901 14.4324 52.8253 15.3537 54.0599C16.2749 55.2946 17.4632 56.2954 18.8258 56.9843C20.1884 57.6733 21.6885 58.0317 23.2091 58.0317H39.9832C41.5039 58.0317 43.004 57.6733 44.3666 56.9843C45.7291 56.2954 46.9174 55.2946 47.8387 54.0599C48.7599 52.8253 49.3893 51.3901 49.6777 49.8664C49.9661 48.3427 49.9058 46.7716 49.5014 45.2756L47.2492 36.9436ZM44.6966 51.6175C44.1462 52.361 43.4338 52.9635 42.6157 53.3773C41.7976 53.791 40.8963 54.0046 39.9832 54.0011H23.2091C22.2967 54.0011 21.3966 53.7861 20.5791 53.3727C19.7615 52.9593 19.0485 52.3589 18.4958 51.618C17.943 50.8772 17.5654 50.0162 17.3923 49.1019C17.2193 48.1877 17.2555 47.245 17.4981 46.3474L19.7503 38.0155C20.4656 35.3696 22.0117 33.0362 24.1515 31.3733C26.2913 29.7104 28.9066 28.8099 31.5962 28.8099C34.2857 28.8099 36.901 29.7104 39.0408 31.3733C41.1806 33.0362 42.7268 35.3696 43.442 38.0155L45.6942 46.3474C45.9404 47.2447 45.9783 48.1881 45.8052 49.1029C45.632 50.0178 45.2525 50.8784 44.6966 51.6175ZM18.032 27.5894C18.3756 25.3977 17.92 23.0516 16.7484 20.9813C15.5769 18.9111 13.8134 17.3353 11.7823 16.5432C9.60709 15.6953 7.38844 15.8304 5.53291 16.9232C1.84418 19.0967 0.873465 24.4535 3.36944 28.8644C4.54059 30.9347 6.30418 32.5109 8.33534 33.3026C9.2351 33.6605 10.1915 33.8471 11.1571 33.8532C12.3602 33.8576 13.5429 33.5365 14.5847 32.9225C16.4391 31.8296 17.6635 29.9356 18.032 27.5894ZM14.1319 26.9523C13.9554 28.077 13.4148 28.9575 12.6097 29.4319C11.8046 29.9062 10.7871 29.9435 9.74421 29.5373C8.55775 29.0749 7.50841 28.1202 6.78935 26.8491C5.40702 24.4056 5.73557 21.4582 7.50767 20.4138C7.95315 20.1558 8.45767 20.0229 8.96986 20.0286C9.45031 20.0337 9.92581 20.1283 10.3729 20.3079C11.5594 20.7705 12.6087 21.7251 13.3278 22.9961C14.0468 24.2672 14.3323 25.6725 14.1319 26.9523ZM18.4598 19.2394C19.8621 20.3834 21.4635 20.9792 23.083 20.9791C23.568 20.9789 24.0517 20.9257 24.5257 20.8202C28.6878 19.8969 31.2114 15.0964 30.1512 10.1193C29.6539 7.78329 28.4446 5.73386 26.7463 4.34821C24.9276 2.86445 22.7734 2.30281 20.6804 2.76734C16.5184 3.6906 13.9948 8.49104 15.0548 13.4682C15.5523 15.8043 16.7616 17.8537 18.4598 19.2394ZM21.5192 6.70599C21.7111 6.66376 21.9069 6.64264 22.1032 6.64301C22.8374 6.64301 23.5925 6.93611 24.28 7.49712C25.272 8.30638 25.9865 9.54189 26.2918 10.9762C26.8793 13.734 25.6863 16.4386 23.6868 16.8822C22.7782 17.0838 21.7978 16.8031 20.9262 16.0919C19.9342 15.2825 19.2197 14.047 18.9144 12.6128C18.3268 9.85426 19.5198 7.1496 21.5192 6.70599ZM57.6594 16.9232C55.8046 15.8304 53.5849 15.6953 51.41 16.5432C49.3789 17.335 47.6153 18.9111 46.4441 20.9813C45.273 23.0516 44.8172 25.3983 45.1605 27.5894C45.5286 29.9356 46.7527 31.8296 48.6078 32.9225C49.6496 33.5365 50.8324 33.8577 52.0354 33.8532C53.0011 33.8471 53.9575 33.6605 54.8572 33.3026C56.8884 32.5109 58.652 30.9347 59.8231 28.8644C62.3189 24.4535 61.3481 19.0967 57.6594 16.9232ZM56.403 26.8491C55.6839 28.1202 54.6346 29.0749 53.4481 29.5373C52.4057 29.9439 51.3879 29.9065 50.5829 29.4319C49.7778 28.9573 49.2375 28.077 49.0607 26.9523C48.86 25.6725 49.1454 24.2677 49.8645 22.9973C50.5837 21.7269 51.6329 20.7716 52.8194 20.309C53.2665 20.1293 53.742 20.0345 54.2225 20.0292C54.7346 20.0235 55.2392 20.1564 55.6846 20.4144C57.4567 21.458 57.7857 24.405 56.403 26.8491ZM38.6667 20.8202C39.1406 20.9257 39.6243 20.9789 40.1093 20.9791C41.7286 20.9791 43.3307 20.3834 44.7325 19.2394C46.4307 17.8539 47.64 15.8043 48.1375 13.4683C49.1976 8.49116 46.6739 3.69072 42.5119 2.76746C40.419 2.30319 38.2647 2.86445 36.446 4.34834C34.7478 5.73386 33.5385 7.78341 33.0411 10.1193C31.9809 15.0964 34.5045 19.8969 38.6667 20.8202ZM36.9005 10.9755C37.2058 9.54126 37.9203 8.30525 38.9123 7.49649C39.6 6.93548 40.355 6.64238 41.0891 6.64238C41.2854 6.64201 41.4812 6.66313 41.6731 6.70536C43.6726 7.14897 44.8656 9.85426 44.2782 12.6114C43.9726 14.0457 43.2581 15.2817 42.2664 16.0906C41.3949 16.8017 40.4151 17.0824 39.5058 16.881C37.506 16.438 36.313 13.733 36.9005 10.9755Z" fill="#FFD231"/>
</g>
<defs>
<clipPath id="clip0_37_2">
<rect width="62" height="58" fill="white"/>
</clipPath>
</defs>
</svg>
