<svg width="32" height="32" viewBox="0 0 32 32" fill="none" xmlns="http://www.w3.org/2000/svg">
<g opacity="0.5">
<path d="M13.3334 24C15.7 23.9995 17.9984 23.2072 19.8627 21.7493L25.724 27.6107L27.6094 25.7253L21.748 19.864C23.2067 17.9995 23.9995 15.7006 24 13.3333C24 7.45199 19.2147 2.66666 13.3334 2.66666C7.45202 2.66666 2.66669 7.45199 2.66669 13.3333C2.66669 19.2147 7.45202 24 13.3334 24ZM13.3334 5.33332C17.7454 5.33332 21.3334 8.92132 21.3334 13.3333C21.3334 17.7453 17.7454 21.3333 13.3334 21.3333C8.92135 21.3333 5.33335 17.7453 5.33335 13.3333C5.33335 8.92132 8.92135 5.33332 13.3334 5.33332Z" fill="#85B6FF"/>
</g>
</svg>
