<svg width="37" height="37" viewBox="0 0 37 37" fill="none" xmlns="http://www.w3.org/2000/svg">
<path d="M6.07146 28.8253C4.41094 26.8275 3.25604 24.459 2.70445 21.9204C2.15286 19.3818 2.22081 16.7477 2.90255 14.2409C3.58429 11.7341 4.85977 9.42834 6.62108 7.51874C8.3824 5.60913 10.5777 4.15183 13.0214 3.2701C15.465 2.38838 18.0851 2.10818 20.6599 2.45321C23.2348 2.79823 25.6886 3.75833 27.8139 5.25229C29.9392 6.74624 31.6734 8.7301 32.8699 11.036C34.0663 13.342 34.6898 15.9022 34.6875 18.5C34.6866 22.2765 33.3558 25.9321 30.9285 28.8253L30.9516 28.845C30.8707 28.9421 30.7782 29.0254 30.695 29.1213C30.5909 29.2404 30.4787 29.3526 30.3712 29.4682C30.0475 29.8197 29.7145 30.1573 29.3653 30.4741C29.2589 30.5713 29.1491 30.6615 29.0415 30.754C28.6715 31.0731 28.2911 31.376 27.8968 31.6581C27.846 31.6928 27.7997 31.7379 27.7488 31.7738V31.7599C25.0408 33.6656 21.8102 34.6883 18.4988 34.6883C15.1875 34.6883 11.9569 33.6656 9.24883 31.7599V31.7738C9.19796 31.7379 9.15287 31.6928 9.10083 31.6581C8.70771 31.3749 8.32615 31.0731 7.95615 30.754C7.84862 30.6615 7.73877 30.5701 7.6324 30.4741C7.28321 30.1562 6.95021 29.8197 6.62646 29.4682C6.51893 29.3526 6.40793 29.2404 6.30271 29.1213C6.22062 29.0254 6.12696 28.9421 6.04602 28.8438L6.07146 28.8253ZM18.5 9.25001C17.4709 9.25001 16.4649 9.55517 15.6093 10.1269C14.7536 10.6986 14.0867 11.5112 13.6929 12.462C13.2991 13.4127 13.1961 14.4589 13.3968 15.4682C13.5976 16.4775 14.0932 17.4046 14.8208 18.1323C15.5485 18.86 16.4756 19.3555 17.4849 19.5563C18.4942 19.7571 19.5404 19.654 20.4911 19.2602C21.4419 18.8664 22.2545 18.1995 22.8262 17.3438C23.398 16.4882 23.7031 15.4822 23.7031 14.4531C23.7031 13.0732 23.1549 11.7498 22.1792 10.774C21.2034 9.7982 19.8799 9.25001 18.5 9.25001ZM27.7419 28.8253C27.7218 27.3071 27.1049 25.8579 26.0245 24.7911C24.944 23.7243 23.4871 23.1258 21.9687 23.125H15.0312C13.5129 23.1258 12.0559 23.7243 10.9755 24.7911C9.89512 25.8579 9.27814 27.3071 9.25809 28.8253C11.7939 31.1105 15.0864 32.3751 18.5 32.3751C21.9135 32.3751 25.2061 31.1105 27.7419 28.8253Z" fill="#FFD231"/>
</svg>
