<svg width="1015" height="96" viewBox="0 0 1015 96" fill="none" xmlns="http://www.w3.org/2000/svg">
<path d="M127.933 44.224H121.597V34.216L112.309 35.872V44.224H107.629L107.557 51.28H112.309V67.84C112.309 70.528 112.885 72.808 114.037 74.68C115.189 76.552 116.773 77.992 118.789 79C120.853 79.96 123.325 80.44 126.205 80.44C126.973 80.44 127.813 80.32 128.725 80.08C129.637 79.888 130.501 79.624 131.317 79.288C132.133 79 132.781 78.664 133.261 78.28L130.525 71.512C129.853 71.8 129.205 72.016 128.581 72.16C127.957 72.304 127.333 72.376 126.709 72.376C125.029 72.376 123.757 71.8 122.893 70.648C122.029 69.496 121.597 68.008 121.597 66.184V51.28H130.813L127.933 44.224Z" fill="black" fill-opacity="0.3"/>
<path d="M190.778 54.88C191.594 54.304 192.482 53.68 193.442 53.008C194.402 52.336 195.458 51.784 196.61 51.352C197.81 50.92 198.986 50.704 200.138 50.704C201.674 50.704 202.898 51.28 203.81 52.432C204.722 53.584 205.178 55.288 205.178 57.544V79H214.538V57.112C214.538 54.424 214.178 52.024 213.458 49.912C212.786 47.752 211.586 46.048 209.858 44.8C208.178 43.552 205.754 42.928 202.586 42.928C201.338 42.928 199.946 43.12 198.41 43.504C196.922 43.84 195.362 44.392 193.73 45.16C192.146 45.88 190.61 46.744 189.122 47.752L190.778 54.88ZM190.778 79V28.168L181.49 28.96V79H190.778Z" fill="black" fill-opacity="0.5"/>
<path d="M296.055 64.312V61.432C296.055 58.12 295.479 55.072 294.327 52.288C293.223 49.504 291.495 47.296 289.143 45.664C286.791 43.984 283.791 43.144 280.143 43.144C276.543 43.144 273.423 43.912 270.783 45.448C268.143 46.936 266.103 49.072 264.663 51.856C263.271 54.592 262.575 57.832 262.575 61.576C262.575 65.272 263.319 68.512 264.807 71.296C266.295 74.032 268.527 76.144 271.503 77.632C274.527 79.12 278.295 79.864 282.807 79.864C284.823 79.864 286.599 79.672 288.135 79.288C289.719 78.952 291.135 78.472 292.383 77.848C293.679 77.176 294.855 76.408 295.911 75.544L293.175 68.776C291.639 69.688 290.079 70.432 288.495 71.008C286.911 71.584 285.087 71.872 283.023 71.872C280.719 71.872 278.847 71.56 277.407 70.936C275.967 70.312 274.863 69.448 274.095 68.344C273.327 67.192 272.799 65.848 272.511 64.312H296.055ZM272.583 58.048C272.871 56.512 273.351 55.24 274.023 54.232C274.695 53.224 275.535 52.456 276.543 51.928C277.551 51.4 278.679 51.136 279.927 51.136C281.175 51.136 282.279 51.4 283.239 51.928C284.247 52.408 285.087 53.152 285.759 54.16C286.431 55.168 286.911 56.464 287.199 58.048H272.583Z" fill="black" fill-opacity="0.7"/>
<path d="M505.219 37.816C507.283 37.816 509.035 38.08 510.475 38.608C511.915 39.136 513.019 39.976 513.787 41.128C514.603 42.232 515.011 43.696 515.011 45.52C515.011 47.248 514.579 48.64 513.715 49.696C512.899 50.704 511.771 51.472 510.331 52C508.891 52.528 507.235 52.792 505.363 52.792H499.459V37.816H505.219ZM490.171 30.04V79H499.459V60.424H503.779C504.499 60.424 505.219 60.448 505.939 60.496C506.707 60.496 507.475 60.472 508.243 60.424L518.611 79H528.547L516.595 57.904C518.995 56.752 520.963 55.096 522.499 52.936C524.083 50.728 524.875 48.112 524.875 45.088C524.875 41.632 523.987 38.8 522.211 36.592C520.483 34.384 518.155 32.752 515.227 31.696C512.299 30.592 509.035 30.04 505.435 30.04H490.171ZM633.778 75.76C634.594 76.288 635.602 76.792 636.802 77.272C638.002 77.752 639.298 78.184 640.69 78.568C642.082 78.952 643.426 79.264 644.722 79.504C646.066 79.792 647.242 79.936 648.25 79.936C652.186 79.936 655.498 79.336 658.186 78.136C660.874 76.936 662.938 75.352 664.378 73.384C665.818 71.368 666.538 69.064 666.538 66.472C666.538 64.36 666.106 62.536 665.242 61C664.378 59.464 663.226 58.096 661.786 56.896C660.346 55.648 658.738 54.52 656.962 53.512C655.234 52.456 653.506 51.424 651.778 50.416C650.242 49.408 648.754 48.52 647.314 47.752C645.874 46.936 644.722 46.072 643.858 45.16C642.994 44.248 642.562 43.192 642.562 41.992C642.562 40.312 643.258 39.064 644.65 38.248C646.042 37.432 647.794 37.024 649.906 37.024C651.298 37.024 652.594 37.192 653.794 37.528C655.042 37.816 656.218 38.2 657.322 38.68C658.426 39.112 659.458 39.568 660.418 40.048L663.586 32.56C661.714 31.648 659.554 30.808 657.106 30.04C654.658 29.272 652.21 28.888 649.762 28.888C646.21 28.888 643.162 29.464 640.618 30.616C638.122 31.768 636.202 33.328 634.858 35.296C633.562 37.264 632.914 39.496 632.914 41.992C632.914 43.864 633.346 45.592 634.21 47.176C635.074 48.712 636.226 50.128 637.666 51.424C639.106 52.72 640.666 53.92 642.346 55.024C644.074 56.128 645.802 57.208 647.53 58.264C649.018 59.128 650.482 59.992 651.922 60.856C653.362 61.672 654.538 62.512 655.45 63.376C656.41 64.24 656.89 65.224 656.89 66.328C656.89 67.48 656.554 68.464 655.882 69.28C655.258 70.048 654.298 70.624 653.002 71.008C651.706 71.392 650.074 71.584 648.106 71.584C646.714 71.584 645.25 71.416 643.714 71.08C642.226 70.696 640.786 70.24 639.394 69.712C638.05 69.184 636.874 68.68 635.866 68.2L633.778 75.76ZM784.902 79V46.24L786.774 49.048L807.582 79H816.942V30.04H807.582V62.728L804.486 58.336L784.902 30.04H775.614V79H784.902ZM905.872 30.04H866.272V37.384H881.176V79H890.608V37.384H907.384L905.872 30.04Z" fill="black"/>
<path d="M414.369 79V61.936H419.769C422.361 61.936 424.833 61.624 427.185 61C429.585 60.328 431.721 59.344 433.593 58.048C435.513 56.704 437.025 55 438.129 52.936C439.233 50.872 439.785 48.472 439.785 45.736C439.785 41.992 438.897 38.968 437.121 36.664C435.393 34.36 433.065 32.68 430.137 31.624C427.209 30.568 423.945 30.04 420.345 30.04H405.081V79H414.369ZM420.057 37.816C422.169 37.816 423.945 38.08 425.385 38.608C426.825 39.136 427.929 40.024 428.697 41.272C429.513 42.52 429.921 44.2 429.921 46.312C429.825 48.136 429.369 49.648 428.553 50.848C427.737 52 426.609 52.864 425.169 53.44C423.777 53.968 422.145 54.232 420.273 54.232H414.369V37.816H420.057Z" fill="black" fill-opacity="0.9"/>
<line x1="566.5" y1="32.5" x2="598.5" y2="32.5" stroke="black" stroke-width="7" stroke-linecap="square"/>
<line x1="567.5" y1="74.5" x2="598.5" y2="74.5" stroke="black" stroke-width="7" stroke-linecap="square"/>
<line opacity="0.5" x1="567.5" y1="53.5" x2="586.5" y2="53.5" stroke="black" stroke-width="7" stroke-linecap="square"/>
<line x1="707.5" y1="32.5" x2="739.5" y2="32.5" stroke="black" stroke-width="7" stroke-linecap="square"/>
<line x1="708.5" y1="74.5" x2="739.5" y2="74.5" stroke="black" stroke-width="7" stroke-linecap="square"/>
<line opacity="0.5" x1="708.5" y1="53.5" x2="727.5" y2="53.5" stroke="black" stroke-width="7" stroke-linecap="square"/>
<circle cx="945" cy="72" r="7.5" fill="white" stroke="#3F7FE0" stroke-width="5"/>
</svg>
