<svg width="98" height="22" viewBox="0 0 98 22" fill="none" xmlns="http://www.w3.org/2000/svg">
<path d="M1.54904 3.1642C1.08744 2.86098 0.467426 2.98936 0.164202 3.45096C-0.139023 3.91256 -0.0106354 4.53257 0.450963 4.8358L1.54904 3.1642ZM97.4738 4.22723C97.5993 3.68939 97.2651 3.15165 96.7272 3.02616L87.9627 0.981092C87.4248 0.855597 86.8871 1.18987 86.7616 1.7277C86.6361 2.26554 86.9704 2.80328 87.5082 2.92877L95.2989 4.74661L93.4811 12.5373C93.3556 13.0752 93.6899 13.6129 94.2277 13.7384C94.7655 13.8639 95.3033 13.5296 95.4288 12.9918L97.4738 4.22723ZM0.450963 4.8358C16.2537 15.2166 31.0623 21.0648 46.6382 21.3647C62.2145 21.6646 78.4244 16.4137 97.0279 4.84929L95.9721 3.15071C77.5756 14.5863 61.7455 19.6552 46.6767 19.3651C31.6077 19.075 17.1663 13.4232 1.54904 3.1642L0.450963 4.8358Z" fill="black"/>
</svg>
