<svg width="203" height="203" viewBox="0 0 203 203" fill="none" xmlns="http://www.w3.org/2000/svg">
<path d="M101.5 27.0667C92.3515 26.9313 92.3515 40.7353 101.5 40.6H121.8V57.7332L83.8661 89.32L70.6846 54.1333H74.4333C83.5819 54.2687 83.5819 40.4647 74.4333 40.6H47.3667C38.2181 40.4647 38.2181 54.2687 47.3667 54.1333H56.1904L68.2486 86.275C61.7772 82.9827 54.6272 81.245 47.3667 81.2C21.2879 81.2 0 102.488 0 128.567C0 154.645 21.2879 175.933 47.3667 175.933C73.4454 175.933 94.7333 154.645 94.7333 128.567C94.7333 119.499 92.0267 111.095 87.5607 103.882L125.738 72.0785L132.004 87.7772C117.875 96.0055 108.267 111.122 108.267 128.567C108.267 154.645 129.555 175.933 155.633 175.933C181.712 175.933 203 154.645 203 128.567C203 102.488 181.712 81.2 155.633 81.2C151.803 81.2 148.136 81.7819 144.563 82.6481L135.333 59.5737V33.8333C135.333 32.0387 134.62 30.3176 133.351 29.0486C132.082 27.7796 130.361 27.0667 128.567 27.0667H101.5ZM47.3667 94.7333C55.0301 94.7522 62.4564 97.3932 68.411 102.217L43.036 123.356C36.1205 129.135 44.7683 139.529 51.6973 133.777L77.0723 112.624C79.6166 117.388 81.2 122.774 81.2 128.567C81.2 147.337 66.1374 162.4 47.3667 162.4C28.5959 162.4 13.5333 147.337 13.5333 128.567C13.5333 109.796 28.5959 94.7333 47.3667 94.7333ZM155.633 94.7333C174.404 94.7333 189.467 109.796 189.467 128.567C189.467 147.337 174.404 162.4 155.633 162.4C136.863 162.4 121.8 147.337 121.8 128.567C121.788 122.962 123.173 117.443 125.832 112.509C128.49 107.575 132.338 103.382 137.025 100.309L149.34 131.084C152.67 139.515 165.31 134.467 161.926 126.049L149.638 95.3288C151.573 95.004 153.576 94.7333 155.633 94.7333Z" fill="#545454"/>
</svg>
