<svg width="216" height="216" viewBox="0 0 216 216" fill="none" xmlns="http://www.w3.org/2000/svg">
<g clip-path="url(#clip0_18_2)">
<path d="M123.062 62.5652C121.24 62.9558 119.615 63.9782 118.475 65.4515C117.335 66.9248 116.752 68.754 116.831 70.6154V71.1388L41.5385 66.9849C40.5133 66.9761 39.4967 67.1713 38.5478 67.5593C37.5989 67.9472 36.7367 68.5202 36.0115 69.2447C35.2862 69.9692 34.7124 70.8308 34.3234 71.7792C33.9344 72.7277 33.7381 73.7441 33.7458 74.7692C33.737 75.795 33.9325 76.8123 34.321 77.7618C34.7094 78.7112 35.2831 79.5738 36.0085 80.2992C36.7339 81.0246 37.5965 81.5983 38.5459 81.9867C39.4953 82.3752 40.5126 82.5707 41.5385 82.5619L116.831 78.408V95.796C110.897 98.4755 105.784 102.688 102.018 108H20.7692C16.6154 108 15.6268 115.012 20.2458 115.793C21.5169 116 66.4449 126.966 92.9381 133.438C92.4646 137.152 92.1655 140.915 92.1655 144.861C92.1655 174.146 117.745 174.204 149.281 174.204C180.817 174.204 206.13 174.154 206.13 144.861C206.13 115.602 167.84 91.8997 136.296 91.8997C134.95 91.8997 133.679 92.0825 132.408 92.1655V78.408L207.692 82.5619C208.718 82.5707 209.735 82.3752 210.685 81.9867C211.634 81.5983 212.497 81.0246 213.222 80.2992C213.948 79.5738 214.521 78.7112 214.91 77.7618C215.298 76.8123 215.494 75.795 215.485 74.7692C215.494 73.7434 215.298 72.7261 214.91 71.7767C214.521 70.8272 213.948 69.9647 213.222 69.2393C212.497 68.5139 211.634 67.9402 210.685 67.5517C209.735 67.1633 208.718 66.9678 207.692 66.9766L132.4 71.1305V70.6154C132.426 69.5074 132.218 68.4063 131.791 67.3838C131.363 66.3614 130.725 65.4404 129.917 64.681C129.11 63.9216 128.152 63.3407 127.105 62.9761C126.059 62.6116 124.947 62.4716 123.843 62.5652C123.58 62.5521 123.316 62.5521 123.054 62.5652H123.062ZM20.7692 92.9465C15.6751 92.9465 10.7896 94.9701 7.18756 98.5722C3.58547 102.174 1.56184 107.06 1.56184 112.154C1.56184 117.248 3.58547 122.133 7.18756 125.736C10.7896 129.338 15.6751 131.361 20.7692 131.361C23.6902 131.353 26.5696 130.669 29.1825 129.363C31.7953 128.058 34.0708 126.165 35.8311 123.834L25.6957 120.977C24.2252 121.807 22.572 122.538 20.7692 122.538C15.0702 122.538 10.3846 117.845 10.3846 112.154C10.3846 106.463 15.0785 101.769 20.7692 101.769C23.5274 101.769 25.9366 102.849 27.7809 104.627H38.4231C36.9656 101.152 34.5103 98.1881 31.3679 96.1089C28.2256 94.0298 24.5371 92.9292 20.7692 92.9465V92.9465ZM150.577 108.515C165.365 108.515 190.819 122.331 190.819 139.669C190.819 146.166 184.09 149.281 161.219 149.281C146.215 149.281 142.012 142.302 142.012 133.438C142.012 120.038 143.657 108.515 150.577 108.515ZM206.139 174.727C204.85 175.006 203.652 175.603 202.654 176.463C201.656 177.324 200.889 178.421 200.423 179.654C200.506 179.571 200.714 179.513 199.9 179.911C197.598 181.066 190.346 183.293 174.462 183.293H83.0769C81.9476 183.108 80.7915 183.17 79.6889 183.477C78.5862 183.783 77.5633 184.325 76.6912 185.066C75.819 185.807 75.1184 186.729 74.6379 187.767C74.1574 188.806 73.9085 189.937 73.9085 191.081C73.9085 192.225 74.1574 193.356 74.6379 194.395C75.1184 195.433 75.819 196.355 76.6912 197.096C77.5633 197.837 78.5862 198.379 79.6889 198.686C80.7915 198.992 81.9476 199.055 83.0769 198.87H174.462C191.667 198.87 200.88 196.934 206.911 193.935C209.927 192.431 212.237 190.578 213.666 188.477C214.38 187.43 214.928 186.342 215.219 185.361C215.518 184.389 215.485 183.035 215.485 183.035C215.549 181.904 215.369 180.773 214.957 179.718C214.545 178.663 213.911 177.709 213.097 176.921C212.284 176.133 211.311 175.529 210.243 175.151C209.176 174.772 208.04 174.628 206.911 174.727C206.654 174.715 206.396 174.715 206.139 174.727V174.727ZM7493.54 12204V12220.6H7709.54V12204H7493.54ZM7526.77 12245.5V12262.2H7676.31V12245.5H7526.77ZM7493.54 12287.1V12303.7H7709.54V12287.1H7493.54ZM7526.77 12328.6V12345.2H7676.31V12328.6H7526.77ZM7493.54 12370.2V12386.8H7709.54V12370.2H7493.54Z" fill="#545454"/>
</g>
<defs>
<clipPath id="clip0_18_2">
<rect width="216" height="216" fill="white"/>
</clipPath>
</defs>
</svg>
